<svg width="357" height="357" viewBox="0 0 357 357" fill="none" xmlns="http://www.w3.org/2000/svg">
<path d="M325.192 166.707L310.497 112.931C307.251 101.051 294.989 94.0517 283.109 97.298L213.199 116.402L194.096 46.4922C190.849 34.6123 178.587 27.6133 166.707 30.8597L112.931 45.5548C101.051 48.8011 94.0517 61.0634 97.2981 72.9434L116.402 142.853L46.4922 161.956C34.6123 165.203 27.6133 177.465 30.8597 189.345L45.5548 243.122C48.8011 255.002 61.0634 262 72.9434 258.754L142.853 239.65L161.956 309.56C165.203 321.44 177.465 328.439 189.345 325.192L243.122 310.497C255.002 307.251 262 294.989 258.754 283.109L239.65 213.199L309.56 194.096C321.44 190.849 328.439 178.587 325.192 166.707Z" fill="url(#paint0_linear_5_33)"/>
<mask id="mask0_5_33" style="mask-type:alpha" maskUnits="userSpaceOnUse" x="30" y="30" width="296" height="296">
<path d="M325.192 166.707L310.497 112.931C307.251 101.051 294.989 94.0517 283.109 97.298L213.199 116.402L194.096 46.4922C190.849 34.6123 178.587 27.6133 166.707 30.8597L112.931 45.5548C101.051 48.8011 94.0517 61.0634 97.2981 72.9434L116.402 142.853L46.4922 161.956C34.6123 165.203 27.6133 177.465 30.8597 189.345L45.5548 243.122C48.8011 255.002 61.0634 262 72.9434 258.754L142.853 239.65L161.956 309.56C165.203 321.44 177.465 328.439 189.345 325.192L243.122 310.497C255.002 307.251 262 294.989 258.754 283.109L239.65 213.199L309.56 194.096C321.44 190.849 328.439 178.587 325.192 166.707Z" fill="white"/>
</mask>
<g mask="url(#mask0_5_33)">
<g filter="url(#filter0_d_5_33)">
<path d="M74.9898 141.663C65.084 161.482 49.8467 188.962 39.0353 222.468C36.5048 230.31 35.7701 244.101 35.1851 252.528C35.1851 252.528 34.2374 263.225 40.098 273.559C43.93 280.316 45.6055 283.242 53.9355 287.51C56.1232 288.631 59.8045 289.79 63.594 287.464C71.4734 282.628 75.0478 279.613 84.1687 269.757C90.829 262.56 99.892 248.33 107.747 242.742C111.877 239.803 115.503 238.504 119.163 237.493C122.823 236.483 125.773 237.097 125.773 237.097L174.169 242.674L222.381 248.229C222.381 248.229 225.393 248.302 228.728 250.119C232.062 251.936 235.297 254.026 238.651 257.827C245.029 265.055 250.618 280.973 255.466 289.496C262.106 301.169 264.901 304.918 271.474 311.42C274.635 314.547 278.484 314.255 280.869 313.661C289.952 311.399 292.249 308.932 297.517 303.223C305.575 294.492 307.085 283.861 307.085 283.861C308.432 275.521 310.853 261.925 310.173 253.713C307.266 218.626 298.678 188.4 293.54 166.848C291.457 158.113 290.68 151.459 280.726 140.659C278.667 138.424 283.979 132.539 260.22 120.92C260.22 120.92 255.778 118.886 252.862 117.755C249.945 116.625 241.501 113.969 237.414 114.431C233.326 114.892 228.503 118.037 228.503 118.037L189.055 113.491L149.424 108.925C149.424 108.925 145.443 104.765 141.567 103.386C137.692 102.007 128.865 102.672 125.768 103.11C122.671 103.547 117.883 104.518 117.883 104.518C92.1037 110.428 95.9375 117.367 93.424 119.075C81.2752 127.328 79.0044 133.631 74.9898 141.663Z" fill="url(#paint1_linear_5_33)"/>
<path d="M74.9898 141.663C65.084 161.482 49.8467 188.962 39.0353 222.468C36.5048 230.31 35.7701 244.101 35.1851 252.528C35.1851 252.528 34.2374 263.225 40.098 273.559C43.93 280.316 45.6055 283.242 53.9355 287.51C56.1232 288.631 59.8045 289.79 63.594 287.464C71.4734 282.628 75.0478 279.613 84.1687 269.757C90.829 262.56 99.892 248.33 107.747 242.742C111.877 239.803 115.503 238.504 119.163 237.493C122.823 236.483 125.773 237.097 125.773 237.097L174.169 242.674L222.381 248.229C222.381 248.229 225.393 248.302 228.728 250.119C232.062 251.936 235.297 254.026 238.651 257.827C245.029 265.055 250.618 280.973 255.466 289.496C262.106 301.169 264.901 304.918 271.474 311.42C274.635 314.547 278.484 314.255 280.869 313.661C289.952 311.399 292.249 308.932 297.517 303.223C305.575 294.492 307.085 283.861 307.085 283.861C308.432 275.521 310.853 261.925 310.173 253.713C307.266 218.626 298.678 188.4 293.54 166.848C291.457 158.113 290.68 151.459 280.726 140.659C278.667 138.424 283.979 132.539 260.22 120.92C260.22 120.92 255.778 118.886 252.862 117.755C249.945 116.625 241.501 113.969 237.414 114.431C233.326 114.892 228.503 118.037 228.503 118.037L189.055 113.491L149.424 108.925C149.424 108.925 145.443 104.765 141.567 103.386C137.692 102.007 128.865 102.672 125.768 103.11C122.671 103.547 117.883 104.518 117.883 104.518C92.1037 110.428 95.9375 117.367 93.424 119.075C81.2752 127.328 79.0044 133.631 74.9898 141.663Z" stroke="white" stroke-width="3"/>
</g>
<g filter="url(#filter1_d_5_33)">
<path d="M163.175 202.134L164.053 194.512C164.342 192.006 162.544 189.739 160.038 189.451L151.62 188.481L152.59 180.063C152.879 177.556 151.081 175.29 148.574 175.001L140.953 174.123C138.446 173.834 136.18 175.632 135.891 178.139L134.921 186.556L126.504 185.586C123.997 185.297 121.731 187.095 121.442 189.602L120.564 197.223C120.275 199.73 122.073 201.996 124.579 202.285L132.997 203.255L132.027 211.673C131.738 214.179 133.536 216.446 136.043 216.734L143.664 217.613C146.171 217.901 148.437 216.104 148.726 213.597L149.696 205.179L158.113 206.149C160.62 206.438 162.886 204.64 163.175 202.134Z" stroke="white" stroke-width="3" shape-rendering="crispEdges"/>
</g>
<g filter="url(#filter2_d_5_33)">
<circle cx="215.136" cy="203.874" r="20.2959" transform="rotate(6.57354 215.136 203.874)" stroke="white" stroke-width="3" shape-rendering="crispEdges"/>
</g>
<g filter="url(#filter3_d_5_33)">
<circle cx="112.857" cy="146.525" r="20.2959" transform="rotate(6.57354 112.857 146.525)" stroke="white" stroke-width="3" shape-rendering="crispEdges"/>
</g>
<g filter="url(#filter4_d_5_33)">
<circle cx="235.986" cy="160.327" r="9.17179" transform="rotate(6.57354 235.986 160.327)" stroke="white" stroke-width="3"/>
<circle cx="249.472" cy="177.327" r="9.17179" transform="rotate(6.57354 249.472 177.327)" stroke="white" stroke-width="3"/>
<circle cx="266.471" cy="163.84" r="9.17179" transform="rotate(6.57354 266.471 163.84)" stroke="white" stroke-width="3"/>
<circle cx="252.985" cy="146.841" r="9.17179" transform="rotate(6.57354 252.985 146.841)" stroke="white" stroke-width="3"/>
</g>
<g filter="url(#filter5_d_5_33)">
<circle cx="163.744" cy="153.933" r="7.25385" transform="rotate(6.57354 163.744 153.933)" stroke="white" stroke-width="3" shape-rendering="crispEdges"/>
</g>
<g filter="url(#filter6_d_5_33)">
<circle cx="203.376" cy="158.5" r="7.25385" transform="rotate(6.57354 203.376 158.5)" stroke="white" stroke-width="3" shape-rendering="crispEdges"/>
</g>
</g>
<g filter="url(#filter7_d_5_33)">
<path d="M332.427 164.73L317.732 110.954C313.394 95.078 297.007 85.7251 281.132 90.0633L218.457 107.19L201.33 44.5153C196.992 28.6397 180.606 19.2867 164.73 23.6249L110.954 38.32C95.078 42.6582 85.7251 59.0448 90.0633 74.9204L107.19 137.595L44.5153 154.722C28.6396 159.06 19.2867 175.446 23.6249 191.322L38.32 245.099C42.6582 260.974 59.0448 270.327 74.9204 265.989L137.595 248.862L154.722 311.537C159.06 327.413 175.446 336.765 191.322 332.427L245.099 317.732C260.974 313.394 270.327 297.007 265.989 281.132L248.862 218.457L311.537 201.33C327.413 196.992 336.765 180.606 332.427 164.73Z" stroke="white" stroke-width="15" shape-rendering="crispEdges"/>
</g>
<defs>
<filter id="filter0_d_5_33" x="27.6285" y="96.0587" width="290.162" height="226.48" filterUnits="userSpaceOnUse" color-interpolation-filters="sRGB">
<feFlood flood-opacity="0" result="BackgroundImageFix"/>
<feColorMatrix in="SourceAlpha" type="matrix" values="0 0 0 0 0 0 0 0 0 0 0 0 0 0 0 0 0 0 127 0" result="hardAlpha"/>
<feOffset dy="1"/>
<feGaussianBlur stdDeviation="3"/>
<feComposite in2="hardAlpha" operator="out"/>
<feColorMatrix type="matrix" values="0 0 0 0 0 0 0 0 0 0 0 0 0 0 0 0 0 0 0.25 0"/>
<feBlend mode="normal" in2="BackgroundImageFix" result="effect1_dropShadow_5_33"/>
<feBlend mode="normal" in="SourceGraphic" in2="effect1_dropShadow_5_33" result="shape"/>
</filter>
<filter id="filter1_d_5_33" x="115.033" y="168.592" width="54.5508" height="54.5508" filterUnits="userSpaceOnUse" color-interpolation-filters="sRGB">
<feFlood flood-opacity="0" result="BackgroundImageFix"/>
<feColorMatrix in="SourceAlpha" type="matrix" values="0 0 0 0 0 0 0 0 0 0 0 0 0 0 0 0 0 0 127 0" result="hardAlpha"/>
<feOffset/>
<feGaussianBlur stdDeviation="2"/>
<feComposite in2="hardAlpha" operator="out"/>
<feColorMatrix type="matrix" values="0 0 0 0 0 0 0 0 0 0 0 0 0 0 0 0 0 0 0.25 0"/>
<feBlend mode="normal" in2="BackgroundImageFix" result="effect1_dropShadow_5_33"/>
<feBlend mode="normal" in="SourceGraphic" in2="effect1_dropShadow_5_33" result="shape"/>
</filter>
<filter id="filter2_d_5_33" x="189.339" y="178.076" width="51.5959" height="51.5959" filterUnits="userSpaceOnUse" color-interpolation-filters="sRGB">
<feFlood flood-opacity="0" result="BackgroundImageFix"/>
<feColorMatrix in="SourceAlpha" type="matrix" values="0 0 0 0 0 0 0 0 0 0 0 0 0 0 0 0 0 0 127 0" result="hardAlpha"/>
<feOffset/>
<feGaussianBlur stdDeviation="2"/>
<feComposite in2="hardAlpha" operator="out"/>
<feColorMatrix type="matrix" values="0 0 0 0 0 0 0 0 0 0 0 0 0 0 0 0 0 0 0.25 0"/>
<feBlend mode="normal" in2="BackgroundImageFix" result="effect1_dropShadow_5_33"/>
<feBlend mode="normal" in="SourceGraphic" in2="effect1_dropShadow_5_33" result="shape"/>
</filter>
<filter id="filter3_d_5_33" x="87.0591" y="120.727" width="51.5959" height="51.5959" filterUnits="userSpaceOnUse" color-interpolation-filters="sRGB">
<feFlood flood-opacity="0" result="BackgroundImageFix"/>
<feColorMatrix in="SourceAlpha" type="matrix" values="0 0 0 0 0 0 0 0 0 0 0 0 0 0 0 0 0 0 127 0" result="hardAlpha"/>
<feOffset/>
<feGaussianBlur stdDeviation="2"/>
<feComposite in2="hardAlpha" operator="out"/>
<feColorMatrix type="matrix" values="0 0 0 0 0 0 0 0 0 0 0 0 0 0 0 0 0 0 0.25 0"/>
<feBlend mode="normal" in2="BackgroundImageFix" result="effect1_dropShadow_5_33"/>
<feBlend mode="normal" in="SourceGraphic" in2="effect1_dropShadow_5_33" result="shape"/>
</filter>
<filter id="filter4_d_5_33" x="221.313" y="132.168" width="59.831" height="59.831" filterUnits="userSpaceOnUse" color-interpolation-filters="sRGB">
<feFlood flood-opacity="0" result="BackgroundImageFix"/>
<feColorMatrix in="SourceAlpha" type="matrix" values="0 0 0 0 0 0 0 0 0 0 0 0 0 0 0 0 0 0 127 0" result="hardAlpha"/>
<feOffset/>
<feGaussianBlur stdDeviation="2"/>
<feComposite in2="hardAlpha" operator="out"/>
<feColorMatrix type="matrix" values="0 0 0 0 0 0 0 0 0 0 0 0 0 0 0 0 0 0 0.25 0"/>
<feBlend mode="normal" in2="BackgroundImageFix" result="effect1_dropShadow_5_33"/>
<feBlend mode="normal" in="SourceGraphic" in2="effect1_dropShadow_5_33" result="shape"/>
</filter>
<filter id="filter5_d_5_33" x="150.99" y="141.179" width="25.5093" height="25.5093" filterUnits="userSpaceOnUse" color-interpolation-filters="sRGB">
<feFlood flood-opacity="0" result="BackgroundImageFix"/>
<feColorMatrix in="SourceAlpha" type="matrix" values="0 0 0 0 0 0 0 0 0 0 0 0 0 0 0 0 0 0 127 0" result="hardAlpha"/>
<feOffset/>
<feGaussianBlur stdDeviation="2"/>
<feComposite in2="hardAlpha" operator="out"/>
<feColorMatrix type="matrix" values="0 0 0 0 0 0 0 0 0 0 0 0 0 0 0 0 0 0 0.25 0"/>
<feBlend mode="normal" in2="BackgroundImageFix" result="effect1_dropShadow_5_33"/>
<feBlend mode="normal" in="SourceGraphic" in2="effect1_dropShadow_5_33" result="shape"/>
</filter>
<filter id="filter6_d_5_33" x="190.621" y="145.746" width="25.5093" height="25.5093" filterUnits="userSpaceOnUse" color-interpolation-filters="sRGB">
<feFlood flood-opacity="0" result="BackgroundImageFix"/>
<feColorMatrix in="SourceAlpha" type="matrix" values="0 0 0 0 0 0 0 0 0 0 0 0 0 0 0 0 0 0 127 0" result="hardAlpha"/>
<feOffset/>
<feGaussianBlur stdDeviation="2"/>
<feComposite in2="hardAlpha" operator="out"/>
<feColorMatrix type="matrix" values="0 0 0 0 0 0 0 0 0 0 0 0 0 0 0 0 0 0 0.25 0"/>
<feBlend mode="normal" in2="BackgroundImageFix" result="effect1_dropShadow_5_33"/>
<feBlend mode="normal" in="SourceGraphic" in2="effect1_dropShadow_5_33" result="shape"/>
</filter>
<filter id="filter7_d_5_33" x="11.0616" y="13.0616" width="333.929" height="333.929" filterUnits="userSpaceOnUse" color-interpolation-filters="sRGB">
<feFlood flood-opacity="0" result="BackgroundImageFix"/>
<feColorMatrix in="SourceAlpha" type="matrix" values="0 0 0 0 0 0 0 0 0 0 0 0 0 0 0 0 0 0 127 0" result="hardAlpha"/>
<feOffset dy="2"/>
<feGaussianBlur stdDeviation="2"/>
<feComposite in2="hardAlpha" operator="out"/>
<feColorMatrix type="matrix" values="0 0 0 0 0 0 0 0 0 0 0 0 0 0 0 0 0 0 0.25 0"/>
<feBlend mode="normal" in2="BackgroundImageFix" result="effect1_dropShadow_5_33"/>
<feBlend mode="normal" in="SourceGraphic" in2="effect1_dropShadow_5_33" result="shape"/>
</filter>
<linearGradient id="paint0_linear_5_33" x1="331" y1="48" x2="49" y2="255" gradientUnits="userSpaceOnUse">
<stop stop-color="#42A5F5"/>
<stop offset="1" stop-color="#9C27B0"/>
</linearGradient>
<linearGradient id="paint1_linear_5_33" x1="130" y1="84" x2="255" y2="317" gradientUnits="userSpaceOnUse">
<stop stop-color="#42A5F5"/>
<stop offset="1" stop-color="#9C27B0"/>
</linearGradient>
</defs>
</svg>
